<svg width="149" height="40" viewBox="0 0 149 40" fill="none" xmlns="http://www.w3.org/2000/svg">
<path d="M0 25C0 11.1929 11.1929 0 25 0H149V15C149 28.8071 137.807 40 124 40H0V25Z" fill="#8D986F"/>
<path d="M25.8622 24.1392C25.1198 24.1392 24.4586 24.0116 23.8786 23.7564C23.3018 23.4979 22.8461 23.1432 22.5114 22.6925C22.1799 22.2384 22.0092 21.7147 21.9993 21.1214H24.1669C24.1802 21.37 24.2614 21.5888 24.4105 21.7777C24.563 21.9633 24.7652 22.1075 25.017 22.2102C25.2689 22.313 25.5523 22.3643 25.8672 22.3643C26.1953 22.3643 26.4853 22.3063 26.7372 22.1903C26.9891 22.0743 27.1863 21.9136 27.3288 21.7081C27.4714 21.5026 27.5426 21.2656 27.5426 20.9972C27.5426 20.7254 27.4664 20.4851 27.3139 20.2763C27.1648 20.0642 26.9493 19.8984 26.6676 19.7791C26.3892 19.6598 26.0578 19.6001 25.6733 19.6001H24.7237V18.0192H25.6733C25.9981 18.0192 26.2848 17.9628 26.5334 17.8501C26.7853 17.7375 26.9808 17.5817 27.12 17.3828C27.2592 17.1806 27.3288 16.9453 27.3288 16.6768C27.3288 16.4216 27.2675 16.1979 27.1449 16.0057C27.0256 15.8101 26.8565 15.6577 26.6378 15.5483C26.4223 15.4389 26.1705 15.3842 25.8821 15.3842C25.5904 15.3842 25.3236 15.4373 25.0817 15.5433C24.8397 15.6461 24.6458 15.7936 24.5 15.9858C24.3542 16.178 24.2763 16.4034 24.2663 16.6619H22.2031C22.2131 16.0753 22.3804 15.5582 22.7053 15.1108C23.0301 14.6634 23.4676 14.3137 24.0178 14.0618C24.5713 13.8066 25.196 13.679 25.892 13.679C26.5947 13.679 27.2095 13.8066 27.7365 14.0618C28.2635 14.317 28.6728 14.6617 28.9645 15.0959C29.2595 15.5268 29.4053 16.0107 29.402 16.5476C29.4053 17.1177 29.228 17.5933 28.87 17.9744C28.5154 18.3556 28.053 18.5975 27.483 18.7003V18.7798C28.232 18.8759 28.8021 19.1361 29.1932 19.5604C29.5876 19.9813 29.7831 20.5083 29.7798 21.1413C29.7831 21.7214 29.6158 22.2367 29.2777 22.6875C28.9429 23.1383 28.4806 23.4929 27.8906 23.7514C27.3007 24.0099 26.6245 24.1392 25.8622 24.1392ZM33.5247 24.1442C33.0375 24.1442 32.6033 24.0597 32.2221 23.8906C31.841 23.7183 31.5394 23.4647 31.3173 23.13C31.0985 22.7919 30.9892 22.371 30.9892 21.8672C30.9892 21.4429 31.0671 21.0866 31.2228 20.7983C31.3786 20.5099 31.5907 20.2779 31.8592 20.1023C32.1277 19.9266 32.4326 19.794 32.774 19.7045C33.1187 19.6151 33.4799 19.5521 33.8578 19.5156C34.3019 19.4692 34.6599 19.4261 34.9316 19.3864C35.2034 19.3433 35.4006 19.2803 35.5233 19.1974C35.6459 19.1146 35.7072 18.992 35.7072 18.8295V18.7997C35.7072 18.4848 35.6078 18.2412 35.4089 18.0689C35.2134 17.8965 34.935 17.8104 34.5737 17.8104C34.1925 17.8104 33.8893 17.8949 33.6639 18.0639C33.4385 18.2296 33.2894 18.4384 33.2164 18.6903L31.2576 18.5312C31.3571 18.0672 31.5526 17.6662 31.8443 17.3281C32.1359 16.9867 32.5121 16.7249 32.9728 16.5426C33.4368 16.357 33.9738 16.2642 34.5836 16.2642C35.0079 16.2642 35.4139 16.3139 35.8017 16.4134C36.1928 16.5128 36.5391 16.6669 36.8407 16.8757C37.1457 17.0845 37.3859 17.353 37.5616 17.6811C37.7373 18.0059 37.8251 18.3954 37.8251 18.8494V24H35.8166V22.9411H35.7569C35.6343 23.1797 35.4702 23.3902 35.2647 23.5724C35.0592 23.7514 34.8123 23.8923 34.524 23.995C34.2356 24.0945 33.9025 24.1442 33.5247 24.1442ZM34.1312 22.6825C34.4428 22.6825 34.7179 22.6212 34.9565 22.4986C35.1951 22.3726 35.3824 22.2036 35.5183 21.9915C35.6542 21.7794 35.7221 21.5391 35.7221 21.2706V20.4602C35.6558 20.5033 35.5647 20.5431 35.4487 20.5795C35.336 20.6127 35.2084 20.6442 35.0659 20.674C34.9234 20.7005 34.7808 20.7254 34.6383 20.7486C34.4958 20.7685 34.3665 20.7867 34.2505 20.8033C34.002 20.8397 33.7849 20.8977 33.5993 20.9773C33.4136 21.0568 33.2695 21.1645 33.1667 21.3004C33.064 21.433 33.0126 21.5987 33.0126 21.7976C33.0126 22.0859 33.117 22.3063 33.3258 22.4588C33.5379 22.608 33.8064 22.6825 34.1312 22.6825ZM38.8716 26.2372V22.3196H39.4583C39.6273 22.2135 39.7632 22.0445 39.8659 21.8125C39.972 21.5805 40.0582 21.3071 40.1245 20.9922C40.1941 20.6773 40.2471 20.3376 40.2836 19.973C40.3233 19.6051 40.3581 19.2339 40.388 18.8594L40.5868 16.3636H46.4434V22.3196H47.6266V26.2372H45.6081V24H40.9398V26.2372H38.8716ZM41.5662 22.3196H44.4448V17.9943H42.3865L42.307 18.8594C42.2507 19.6747 42.1694 20.3674 42.0634 20.9375C41.9573 21.5043 41.7916 21.965 41.5662 22.3196ZM51.0384 24.1442C50.5511 24.1442 50.117 24.0597 49.7358 23.8906C49.3546 23.7183 49.053 23.4647 48.831 23.13C48.6122 22.7919 48.5028 22.371 48.5028 21.8672C48.5028 21.4429 48.5807 21.0866 48.7365 20.7983C48.8923 20.5099 49.1044 20.2779 49.3729 20.1023C49.6413 19.9266 49.9463 19.794 50.2876 19.7045C50.6323 19.6151 50.9936 19.5521 51.3714 19.5156C51.8156 19.4692 52.1735 19.4261 52.4453 19.3864C52.7171 19.3433 52.9143 19.2803 53.0369 19.1974C53.1596 19.1146 53.2209 18.992 53.2209 18.8295V18.7997C53.2209 18.4848 53.1214 18.2412 52.9226 18.0689C52.727 17.8965 52.4486 17.8104 52.0874 17.8104C51.7062 17.8104 51.4029 17.8949 51.1776 18.0639C50.9522 18.2296 50.803 18.4384 50.7301 18.6903L48.7713 18.5312C48.8707 18.0672 49.0663 17.6662 49.358 17.3281C49.6496 16.9867 50.0258 16.7249 50.4865 16.5426C50.9505 16.357 51.4875 16.2642 52.0973 16.2642C52.5215 16.2642 52.9276 16.3139 53.3153 16.4134C53.7064 16.5128 54.0528 16.6669 54.3544 16.8757C54.6593 17.0845 54.8996 17.353 55.0753 17.6811C55.2509 18.0059 55.3388 18.3954 55.3388 18.8494V24H53.3303V22.9411H53.2706C53.148 23.1797 52.9839 23.3902 52.7784 23.5724C52.5729 23.7514 52.326 23.8923 52.0376 23.995C51.7493 24.0945 51.4162 24.1442 51.0384 24.1442ZM51.6449 22.6825C51.9564 22.6825 52.2315 22.6212 52.4702 22.4986C52.7088 22.3726 52.8961 22.2036 53.032 21.9915C53.1679 21.7794 53.2358 21.5391 53.2358 21.2706V20.4602C53.1695 20.5033 53.0784 20.5431 52.9624 20.5795C52.8497 20.6127 52.7221 20.6442 52.5795 20.674C52.437 20.7005 52.2945 20.7254 52.152 20.7486C52.0095 20.7685 51.8802 20.7867 51.7642 20.8033C51.5156 20.8397 51.2985 20.8977 51.1129 20.9773C50.9273 21.0568 50.7831 21.1645 50.6804 21.3004C50.5777 21.433 50.5263 21.5987 50.5263 21.7976C50.5263 22.0859 50.6307 22.3063 50.8395 22.4588C51.0516 22.608 51.3201 22.6825 51.6449 22.6825ZM56.215 18.0291V16.3636H63.1355V18.0291H60.6745V24H58.6561V18.0291H56.215ZM65.7468 18.7102H68.0288C69.0397 18.7102 69.8285 18.9522 70.3952 19.4361C70.962 19.9167 71.2454 20.5597 71.2454 21.3651C71.2454 21.8887 71.1178 22.3494 70.8626 22.7472C70.6074 23.1416 70.2395 23.4498 69.7589 23.6719C69.2783 23.8906 68.7016 24 68.0288 24H64.4194V16.3636H66.4428V22.3345H68.0288C68.3834 22.3345 68.6751 22.245 68.9038 22.0661C69.1325 21.8871 69.2485 21.6584 69.2518 21.38C69.2485 21.085 69.1325 20.8447 68.9038 20.6591C68.6751 20.4702 68.3834 20.3757 68.0288 20.3757H65.7468V18.7102ZM75.8901 24V16.3636H79.1465C80.0878 16.3636 80.8319 16.5426 81.3787 16.9006C81.9256 17.2585 82.199 17.7673 82.199 18.4268C82.199 18.8411 82.0449 19.1858 81.7367 19.4609C81.4284 19.736 81.0009 19.9216 80.454 20.0178C80.9114 20.0509 81.3008 20.1553 81.6223 20.331C81.9471 20.5033 82.1941 20.727 82.3631 21.0021C82.5355 21.2772 82.6216 21.5821 82.6216 21.9169C82.6216 22.3511 82.5056 22.724 82.2736 23.0355C82.0449 23.3471 81.7085 23.5857 81.2644 23.7514C80.8236 23.9171 80.285 24 79.6486 24H75.8901ZM77.8638 22.4141H79.6486C79.9436 22.4141 80.1739 22.3445 80.3397 22.2053C80.5087 22.0627 80.5932 21.8688 80.5932 21.6236C80.5932 21.3518 80.5087 21.138 80.3397 20.9822C80.1739 20.8265 79.9436 20.7486 79.6486 20.7486H77.8638V22.4141ZM77.8638 19.5057H79.1912C79.4034 19.5057 79.584 19.4759 79.7331 19.4162C79.8856 19.3532 80.0016 19.2637 80.0811 19.1477C80.164 19.0317 80.2054 18.8942 80.2054 18.7351C80.2054 18.4998 80.111 18.3158 79.9221 18.1832C79.7331 18.0507 79.4746 17.9844 79.1465 17.9844H77.8638V19.5057ZM87.4068 24.1491C86.6345 24.1491 85.9667 23.9851 85.4032 23.657C84.8431 23.3255 84.4106 22.8648 84.1056 22.2749C83.8007 21.6816 83.6483 20.9938 83.6483 20.2116C83.6483 19.4228 83.8007 18.7334 84.1056 18.1435C84.4106 17.5502 84.8431 17.0895 85.4032 16.7614C85.9667 16.4299 86.6345 16.2642 87.4068 16.2642C88.179 16.2642 88.8452 16.4299 89.4054 16.7614C89.9688 17.0895 90.403 17.5502 90.7079 18.1435C91.0128 18.7334 91.1653 19.4228 91.1653 20.2116C91.1653 20.9938 91.0128 21.6816 90.7079 22.2749C90.403 22.8648 89.9688 23.3255 89.4054 23.657C88.8452 23.9851 88.179 24.1491 87.4068 24.1491ZM87.4167 22.5085C87.7681 22.5085 88.0614 22.4091 88.2967 22.2102C88.532 22.008 88.7093 21.733 88.8287 21.3849C88.9513 21.0369 89.0126 20.6409 89.0126 20.1967C89.0126 19.7526 88.9513 19.3565 88.8287 19.0085C88.7093 18.6605 88.532 18.3854 88.2967 18.1832C88.0614 17.9811 87.7681 17.88 87.4167 17.88C87.0621 17.88 86.7638 17.9811 86.5218 18.1832C86.2832 18.3854 86.1026 18.6605 85.9799 19.0085C85.8606 19.3565 85.801 19.7526 85.801 20.1967C85.801 20.6409 85.8606 21.0369 85.9799 21.3849C86.1026 21.733 86.2832 22.008 86.5218 22.2102C86.7638 22.4091 87.0621 22.5085 87.4167 22.5085ZM92.5424 24V16.3636H99.2193V24H97.1958V18.0291H94.541V24H92.5424ZM100.91 26.8636V16.3636H102.998V17.6463H103.092C103.185 17.4408 103.319 17.232 103.495 17.0199C103.674 16.8045 103.906 16.6255 104.191 16.483C104.479 16.3371 104.837 16.2642 105.265 16.2642C105.822 16.2642 106.335 16.41 106.806 16.7017C107.277 16.9901 107.653 17.4259 107.934 18.0092C108.216 18.5893 108.357 19.3168 108.357 20.1918C108.357 21.0436 108.22 21.7628 107.944 22.3494C107.673 22.9328 107.301 23.3752 106.831 23.6768C106.363 23.9751 105.84 24.1243 105.26 24.1243C104.849 24.1243 104.499 24.0563 104.211 23.9205C103.926 23.7846 103.692 23.6139 103.51 23.4084C103.327 23.1996 103.188 22.9891 103.092 22.777H103.028V26.8636H100.91ZM102.983 20.1818C102.983 20.6359 103.046 21.032 103.172 21.37C103.298 21.7081 103.48 21.9716 103.719 22.1605C103.957 22.3461 104.247 22.4389 104.589 22.4389C104.933 22.4389 105.225 22.3445 105.464 22.1555C105.702 21.9633 105.883 21.6982 106.006 21.3601C106.131 21.0187 106.194 20.6259 106.194 20.1818C106.194 19.741 106.133 19.3532 106.01 19.0185C105.888 18.6837 105.707 18.4219 105.469 18.233C105.23 18.044 104.937 17.9496 104.589 17.9496C104.244 17.9496 103.952 18.0407 103.714 18.223C103.478 18.4053 103.298 18.6638 103.172 18.9986C103.046 19.3333 102.983 19.7277 102.983 20.1818ZM113.219 24.1491C112.447 24.1491 111.779 23.9851 111.216 23.657C110.656 23.3255 110.223 22.8648 109.918 22.2749C109.613 21.6816 109.461 20.9938 109.461 20.2116C109.461 19.4228 109.613 18.7334 109.918 18.1435C110.223 17.5502 110.656 17.0895 111.216 16.7614C111.779 16.4299 112.447 16.2642 113.219 16.2642C113.992 16.2642 114.658 16.4299 115.218 16.7614C115.781 17.0895 116.215 17.5502 116.52 18.1435C116.825 18.7334 116.978 19.4228 116.978 20.2116C116.978 20.9938 116.825 21.6816 116.52 22.2749C116.215 22.8648 115.781 23.3255 115.218 23.657C114.658 23.9851 113.992 24.1491 113.219 24.1491ZM113.229 22.5085C113.581 22.5085 113.874 22.4091 114.109 22.2102C114.345 22.008 114.522 21.733 114.641 21.3849C114.764 21.0369 114.825 20.6409 114.825 20.1967C114.825 19.7526 114.764 19.3565 114.641 19.0085C114.522 18.6605 114.345 18.3854 114.109 18.1832C113.874 17.9811 113.581 17.88 113.229 17.88C112.875 17.88 112.576 17.9811 112.334 18.1832C112.096 18.3854 111.915 18.6605 111.792 19.0085C111.673 19.3565 111.613 19.7526 111.613 20.1967C111.613 20.6409 111.673 21.0369 111.792 21.3849C111.915 21.733 112.096 22.008 112.334 22.2102C112.576 22.4091 112.875 22.5085 113.229 22.5085ZM121.805 24.1491C121.023 24.1491 120.35 23.9834 119.787 23.652C119.227 23.3172 118.796 22.8532 118.494 22.2599C118.196 21.6667 118.047 20.9839 118.047 20.2116C118.047 19.4295 118.198 18.7434 118.499 18.1534C118.804 17.5601 119.237 17.0978 119.797 16.7663C120.357 16.4316 121.023 16.2642 121.795 16.2642C122.461 16.2642 123.045 16.3852 123.545 16.6271C124.046 16.8691 124.442 17.2088 124.733 17.6463C125.025 18.0838 125.186 18.5975 125.216 19.1875H123.217C123.161 18.8063 123.012 18.4998 122.77 18.2678C122.531 18.0324 122.218 17.9148 121.83 17.9148C121.502 17.9148 121.215 18.0043 120.97 18.1832C120.728 18.3589 120.539 18.6158 120.403 18.9538C120.267 19.2919 120.199 19.7012 120.199 20.1818C120.199 20.669 120.266 21.0833 120.398 21.4247C120.534 21.7661 120.725 22.0263 120.97 22.2053C121.215 22.3842 121.502 22.4737 121.83 22.4737C122.072 22.4737 122.289 22.424 122.481 22.3246C122.677 22.2251 122.838 22.081 122.964 21.892C123.093 21.6998 123.177 21.4695 123.217 21.201H125.216C125.183 21.7843 125.023 22.2981 124.738 22.7422C124.457 23.183 124.067 23.5277 123.57 23.7763C123.073 24.0249 122.485 24.1491 121.805 24.1491Z" fill="white"/>
</svg>
