<svg width="167" height="159" viewBox="0 0 167 159" fill="none" xmlns="http://www.w3.org/2000/svg">
<rect width="167" height="159" rx="79.5" fill="white" fill-opacity="0.5"/>
<path d="M31.7529 110H28.1279L33.6514 94H38.0107L43.5264 110H39.9014L35.8936 97.6562H35.7686L31.7529 110ZM31.5264 103.711H40.0889V106.352H31.5264V103.711ZM44.4521 113.516V107.359H45.374C45.6396 107.193 45.8532 106.927 46.0146 106.562C46.1813 106.198 46.3167 105.768 46.4209 105.273C46.5303 104.779 46.6136 104.245 46.6709 103.672C46.7334 103.094 46.7881 102.51 46.835 101.922L47.1475 98H56.3506V107.359H58.21V113.516H55.0381V110H47.7021V113.516H44.4521ZM48.6865 107.359H53.21V100.562H49.9756L49.8506 101.922C49.762 103.203 49.6344 104.292 49.4678 105.188C49.3011 106.078 49.0407 106.802 48.6865 107.359ZM60.1494 114.5V98H63.4307V100.016H63.5791C63.7249 99.6927 63.9359 99.3646 64.2119 99.0312C64.4932 98.6927 64.8577 98.4115 65.3057 98.1875C65.7588 97.9583 66.3213 97.8438 66.9932 97.8438C67.8682 97.8438 68.6755 98.0729 69.415 98.5313C70.1546 98.9844 70.7458 99.6693 71.1885 100.586C71.6312 101.497 71.8525 102.641 71.8525 104.016C71.8525 105.354 71.6364 106.484 71.2041 107.406C70.777 108.323 70.1937 109.018 69.4541 109.492C68.7197 109.961 67.8968 110.195 66.9854 110.195C66.3395 110.195 65.79 110.089 65.3369 109.875C64.889 109.661 64.5218 109.393 64.2354 109.07C63.9489 108.742 63.7301 108.411 63.5791 108.078H63.4775V114.5H60.1494ZM63.4072 104C63.4072 104.714 63.5062 105.336 63.7041 105.867C63.902 106.398 64.1885 106.812 64.5635 107.109C64.9385 107.401 65.3942 107.547 65.9307 107.547C66.4723 107.547 66.9307 107.398 67.3057 107.102C67.6807 106.799 67.9645 106.383 68.1572 105.852C68.3551 105.315 68.4541 104.698 68.4541 104C68.4541 103.307 68.3577 102.698 68.165 102.172C67.9723 101.646 67.6885 101.234 67.3135 100.937C66.9385 100.641 66.4775 100.492 65.9307 100.492C65.389 100.492 64.9307 100.635 64.5557 100.922C64.1859 101.208 63.902 101.615 63.7041 102.141C63.5062 102.667 63.4072 103.286 63.4072 104ZM79.54 110.234C78.3057 110.234 77.2432 109.984 76.3525 109.484C75.4671 108.979 74.7848 108.266 74.3057 107.344C73.8265 106.417 73.5869 105.32 73.5869 104.055C73.5869 102.82 73.8265 101.737 74.3057 100.805C74.7848 99.8724 75.4593 99.1458 76.3291 98.625C77.2041 98.1042 78.2301 97.8438 79.4072 97.8438C80.1989 97.8438 80.9359 97.9714 81.6182 98.2266C82.3057 98.4766 82.9046 98.8542 83.415 99.3594C83.9307 99.8646 84.3317 100.5 84.6182 101.266C84.9046 102.026 85.0479 102.917 85.0479 103.937V104.852H74.915V102.789H81.915C81.915 102.31 81.8109 101.885 81.6025 101.516C81.3942 101.146 81.1051 100.857 80.7354 100.648C80.3708 100.435 79.9463 100.328 79.4619 100.328C78.9567 100.328 78.5088 100.445 78.1182 100.68C77.7327 100.909 77.4307 101.219 77.2119 101.609C76.9932 101.995 76.8812 102.424 76.876 102.898V104.859C76.876 105.453 76.9854 105.966 77.2041 106.398C77.4281 106.831 77.7432 107.164 78.1494 107.398C78.5557 107.633 79.0374 107.75 79.5947 107.75C79.9645 107.75 80.3031 107.698 80.6104 107.594C80.9176 107.49 81.1807 107.333 81.3994 107.125C81.6182 106.917 81.7848 106.661 81.8994 106.359L84.9775 106.562C84.8213 107.302 84.501 107.948 84.0166 108.5C83.5374 109.047 82.9176 109.474 82.1572 109.781C81.402 110.083 80.5296 110.234 79.54 110.234ZM92.6416 110.234C91.4124 110.234 90.3551 109.974 89.4697 109.453C88.5895 108.927 87.9124 108.198 87.4385 107.266C86.9697 106.333 86.7354 105.26 86.7354 104.047C86.7354 102.818 86.9723 101.74 87.4463 100.812C87.9255 99.8802 88.6051 99.1536 89.4854 98.6328C90.3656 98.1068 91.4124 97.8438 92.626 97.8438C93.6729 97.8438 94.5895 98.0339 95.376 98.4141C96.1624 98.7943 96.7848 99.3281 97.2432 100.016C97.7015 100.703 97.9541 101.51 98.001 102.438H94.8604C94.7718 101.839 94.5374 101.357 94.1572 100.992C93.7822 100.622 93.29 100.437 92.6807 100.437C92.165 100.437 91.7145 100.578 91.3291 100.859C90.9489 101.135 90.652 101.539 90.4385 102.07C90.2249 102.602 90.1182 103.245 90.1182 104C90.1182 104.766 90.2223 105.417 90.4307 105.953C90.6442 106.49 90.9437 106.898 91.3291 107.18C91.7145 107.461 92.165 107.602 92.6807 107.602C93.0609 107.602 93.402 107.523 93.7041 107.367C94.0114 107.211 94.264 106.984 94.4619 106.687C94.665 106.385 94.7979 106.023 94.8604 105.602H98.001C97.9489 106.518 97.6989 107.326 97.251 108.023C96.8083 108.716 96.1963 109.258 95.415 109.648C94.6338 110.039 93.7093 110.234 92.6416 110.234ZM108.483 102.672V105.289H102.218V102.672H108.483ZM103.312 98V110H100.132V98H103.312ZM110.569 98V110H107.413V98H110.569ZM116.573 110.227C115.808 110.227 115.125 110.094 114.526 109.828C113.927 109.557 113.453 109.159 113.104 108.633C112.761 108.102 112.589 107.44 112.589 106.648C112.589 105.982 112.711 105.422 112.956 104.969C113.201 104.516 113.534 104.151 113.956 103.875C114.378 103.599 114.857 103.391 115.394 103.25C115.935 103.109 116.503 103.01 117.097 102.953C117.795 102.88 118.357 102.812 118.784 102.75C119.211 102.682 119.521 102.583 119.714 102.453C119.907 102.323 120.003 102.13 120.003 101.875V101.828C120.003 101.333 119.847 100.951 119.534 100.68C119.227 100.409 118.789 100.273 118.222 100.273C117.623 100.273 117.146 100.406 116.792 100.672C116.438 100.932 116.203 101.26 116.089 101.656L113.011 101.406C113.167 100.677 113.474 100.047 113.933 99.5156C114.391 98.9792 114.982 98.5677 115.706 98.2812C116.435 97.9896 117.279 97.8438 118.237 97.8438C118.904 97.8438 119.542 97.9219 120.151 98.0781C120.766 98.2344 121.31 98.4766 121.784 98.8047C122.263 99.1328 122.641 99.5547 122.917 100.07C123.193 100.581 123.331 101.193 123.331 101.906V110H120.175V108.336H120.081C119.888 108.711 119.631 109.042 119.308 109.328C118.985 109.609 118.597 109.831 118.144 109.992C117.69 110.148 117.167 110.227 116.573 110.227ZM117.526 107.93C118.016 107.93 118.448 107.833 118.823 107.641C119.198 107.443 119.493 107.177 119.706 106.844C119.92 106.51 120.026 106.133 120.026 105.711V104.438C119.922 104.505 119.779 104.568 119.597 104.625C119.42 104.677 119.219 104.727 118.995 104.773C118.771 104.815 118.547 104.854 118.323 104.891C118.099 104.922 117.896 104.951 117.714 104.977C117.323 105.034 116.982 105.125 116.69 105.25C116.399 105.375 116.172 105.544 116.011 105.758C115.849 105.966 115.769 106.227 115.769 106.539C115.769 106.992 115.933 107.339 116.261 107.578C116.594 107.812 117.016 107.93 117.526 107.93ZM132.944 110V100.609H130.694C130.085 100.609 129.621 100.75 129.304 101.031C128.986 101.312 128.83 101.646 128.835 102.031C128.83 102.422 128.981 102.753 129.288 103.023C129.601 103.289 130.059 103.422 130.663 103.422H134.054V105.672H130.663C129.637 105.672 128.749 105.516 127.999 105.203C127.249 104.891 126.671 104.456 126.265 103.898C125.858 103.336 125.658 102.682 125.663 101.937C125.658 101.156 125.858 100.471 126.265 99.8828C126.671 99.2891 127.252 98.8281 128.007 98.5C128.767 98.1667 129.663 98 130.694 98H136.046V110H132.944ZM125.319 110L128.655 103.75H131.835L128.507 110H125.319ZM40.9316 135V123H51.4238V135H48.2441V125.617H44.0723V135H40.9316ZM59.502 135.234C58.2884 135.234 57.2389 134.977 56.3535 134.461C55.4733 133.94 54.7936 133.216 54.3145 132.289C53.8353 131.357 53.5957 130.276 53.5957 129.047C53.5957 127.807 53.8353 126.724 54.3145 125.797C54.7936 124.865 55.4733 124.141 56.3535 123.625C57.2389 123.104 58.2884 122.844 59.502 122.844C60.7155 122.844 61.7624 123.104 62.6426 123.625C63.528 124.141 64.2103 124.865 64.6895 125.797C65.1686 126.724 65.4082 127.807 65.4082 129.047C65.4082 130.276 65.1686 131.357 64.6895 132.289C64.2103 133.216 63.528 133.94 62.6426 134.461C61.7624 134.977 60.7155 135.234 59.502 135.234ZM59.5176 132.656C60.0697 132.656 60.5306 132.5 60.9004 132.188C61.2702 131.87 61.5488 131.437 61.7363 130.891C61.929 130.344 62.0254 129.721 62.0254 129.023C62.0254 128.326 61.929 127.703 61.7363 127.156C61.5488 126.609 61.2702 126.177 60.9004 125.859C60.5306 125.542 60.0697 125.383 59.5176 125.383C58.9603 125.383 58.4915 125.542 58.1113 125.859C57.7363 126.177 57.4525 126.609 57.2598 127.156C57.0723 127.703 56.9785 128.326 56.9785 129.023C56.9785 129.721 57.0723 130.344 57.2598 130.891C57.4525 131.437 57.7363 131.87 58.1113 132.188C58.4915 132.5 58.9603 132.656 59.5176 132.656ZM74.666 131.32L77.916 123H80.4473L75.7676 135H73.5566L68.9863 123H71.5098L74.666 131.32ZM70.752 123V135H67.5723V123H70.752ZM78.7441 135V123H81.8848V135H78.7441ZM89.8809 135.234C88.6673 135.234 87.6178 134.977 86.7324 134.461C85.8522 133.94 85.1725 133.216 84.6934 132.289C84.2142 131.357 83.9746 130.276 83.9746 129.047C83.9746 127.807 84.2142 126.724 84.6934 125.797C85.1725 124.865 85.8522 124.141 86.7324 123.625C87.6178 123.104 88.6673 122.844 89.8809 122.844C91.0944 122.844 92.1413 123.104 93.0215 123.625C93.9069 124.141 94.5892 124.865 95.0684 125.797C95.5475 126.724 95.7871 127.807 95.7871 129.047C95.7871 130.276 95.5475 131.357 95.0684 132.289C94.5892 133.216 93.9069 133.94 93.0215 134.461C92.1413 134.977 91.0944 135.234 89.8809 135.234ZM89.8965 132.656C90.4486 132.656 90.9095 132.5 91.2793 132.188C91.6491 131.87 91.9277 131.437 92.1152 130.891C92.3079 130.344 92.4043 129.721 92.4043 129.023C92.4043 128.326 92.3079 127.703 92.1152 127.156C91.9277 126.609 91.6491 126.177 91.2793 125.859C90.9095 125.542 90.4486 125.383 89.8965 125.383C89.3392 125.383 88.8704 125.542 88.4902 125.859C88.1152 126.177 87.8314 126.609 87.6387 127.156C87.4512 127.703 87.3574 128.326 87.3574 129.023C87.3574 129.721 87.4512 130.344 87.6387 130.891C87.8314 131.437 88.1152 131.87 88.4902 132.188C88.8704 132.5 89.3392 132.656 89.8965 132.656ZM116.803 132.383L116.568 138.438H113.514V135H112.178V132.383H116.803ZM97.9512 123H101.131V132.359H104.514V123H107.693V132.359H111.076V123H114.256V135H97.9512V123ZM120.877 126.688H124.463C126.051 126.688 127.291 127.068 128.182 127.828C129.072 128.583 129.518 129.594 129.518 130.859C129.518 131.682 129.317 132.406 128.916 133.031C128.515 133.651 127.937 134.135 127.182 134.484C126.426 134.828 125.52 135 124.463 135H118.791V123H121.971V132.383H124.463C125.02 132.383 125.479 132.242 125.838 131.961C126.197 131.68 126.38 131.32 126.385 130.883C126.38 130.419 126.197 130.042 125.838 129.75C125.479 129.453 125.02 129.305 124.463 129.305H120.877V126.688Z" fill="black"/>
<ellipse cx="84.1368" cy="79.0632" rx="28.339" ry="6.93678" fill="#AF4D4D" fill-opacity="0.77"/>
<path d="M84.7633 15C78.5136 15.0078 72.5221 17.645 68.1029 22.3331C63.6838 27.0212 61.1978 33.3774 61.1905 40.0074C61.183 45.4254 62.8512 50.6964 65.9393 55.0118C65.9393 55.0118 66.5822 55.9098 66.6872 56.0394L84.7633 78.6552L102.848 56.028C102.942 55.9075 103.587 55.0118 103.587 55.0118L103.589 55.005C106.676 50.6915 108.343 45.4229 108.336 40.0074C108.329 33.3774 105.843 27.0212 101.424 22.3331C97.0045 17.645 91.0129 15.0078 84.7633 15ZM84.7633 49.101C83.0679 49.101 81.4106 48.5677 80.001 47.5684C78.5913 46.5692 77.4926 45.149 76.8439 43.4874C76.1951 41.8257 76.0253 39.9973 76.3561 38.2333C76.6868 36.4693 77.5032 34.849 78.702 33.5772C79.9008 32.3055 81.4282 31.4394 83.091 31.0885C84.7538 30.7376 86.4773 30.9177 88.0436 31.606C89.6099 32.2943 90.9487 33.4598 91.8906 34.9553C92.8325 36.4507 93.3352 38.2088 93.3352 40.0074C93.3324 42.4182 92.4284 44.7295 90.8214 46.4342C89.2145 48.1389 87.0358 49.098 84.7633 49.101Z" fill="#FF2E00"/>
</svg>
