<?xml version="1.0" encoding="UTF-8"?>
<svg xmlns="http://www.w3.org/2000/svg" version="1.1" viewBox="0 0 222.9 214.5">
  <defs>
    <style>
      .cls-1 {
        fill: #fff;
      }

      .cls-2 {
        fill: #8d986f;
      }

      .cls-3 {
        fill: #aebc8d;
      }

      .cls-4 {
        fill: #e43217;
      }

      .cls-5 {
        fill: #454b4e;
      }
    </style>
  </defs>
  <!-- Generator: Adobe Illustrator 28.7.5, SVG Export Plug-In . SVG Version: 1.2.0 Build 176)  -->
  <g>
    <g id="_Слой_1" data-name="Слой_1">
      <path class="cls-2" d="M175,67.7c-.4,0-.8,0-1.3-.1.2.4.4.8.6,1.1,1.5,2.6,3,5.2,4.5,7.7.5.8,1.1,1.5,1.8,2.1,2,1.5,4.1,2.8,6.2,4.2h.4c.3.5.5,1,.9,1.4,1,1.1,2.2,1.9,3.1,3.1,2.8,3.6,5.4,7.1,8,10.8.9,1.2,1.4,2.6,2,4,.2.3.1.8.1,1.2-.1,0-.2.1-.4.2-.3-.3-.7-.7-1-1.1-1.2-1.9-2.4-3.9-3.7-5.8-2.8-4.3-6.1-8.2-10-11.7-.3-.3-.8-.5-1.2-.7-1.2-1-2.5-2-3.8-2.9,0,0,0,0-.1,0,0,.3,0,.6.1.9.9,2.7,1.7,5.4,2.6,8.1,1.5,4.6,1.9,9.3,2.4,14,0,.3,0,.6.1.8,1.4,2.3,1.7,4.8,2.6,7.2.1.4.4.7.5,1.1,0,.4,0,.8.1,1.2.9,2.9,1.8,5.9,2.7,8.8,1.4,4.9,2.8,9.8,4.1,14.8.2.6.4,1.3-.4,2.1-.3-.4-.7-.7-.8-1.1-1.2-4-2.5-7.9-3.6-11.9-.9-3-1.6-6.2-2.4-9.2-.2-.8-.5-1.5-.7-2.3-1.2-2.3-1.5-4.8-1.6-7.4-.1-.1-.2-.1-.3-.2h-.4v1.8c0,8.5-1.6,16.7-4.4,24.7-.7,2.1-1.7,4.1-2.5,6.2-.2.5-.6,1-.3,1.6,0,.4.1,1.1.2,1.5-.1,1.7-.2,3.4-.4,5.1-.4,0-.6.2-.6.6.1,1,.2,1.9.2,2.9-.2,3.2-.5,6.3-.6,9.5-.1,3.2,0,6.5,0,9.7s-.3,2-1,1.8c-1.1-.2-.8-1.1-.8-1.8,0-1.5,0-3.1,0-4.6,0-2.2-.3-4.4-.2-6.6,0-2.5.4-5,.6-7.4.2-1.9.5-3.8.8-5.7,0,0,0-.1,0-.2,0-.2.1-.6.2-.8v-1c0,0-.2,0-.2,0-.1.3-.2.5-.4.8-.2.4-.4.8-.6,1.2-1.8,2.8-3.7,5.5-5.5,8.3-.3.5-.6,1.1-.6,1.7,0,1.4,0,2.7,0,4.1,0,.1-.1.2-.1.3-.5.3-1.1.3-1.6,0,0-.2-.4.3-.5,0,.2-.7.7-2,.9-2.7,0,0,0-.1,0-.2,0-.3,0-.5,0-.8-.2.1-.4.3-.6.4-1.5,1.7-3,3.3-4.6,5-.6.6-.9,1.2-1.2,2-.5,1.6-1.5,3.1-2.1,4.7-.4,1.1-1.3,2.1-1.1,3.3-.2.1-.5.1-.6.3-.7,1.5-1.5,3.1-2.1,4.7-1.6,4.3-3.1,8.7-4.6,13.1-.2.6-.5,1.3-.8,1.9-.1.2-.5.4-.7.6-.1,0-.2-.1-.3-.1,0-.5,0-1.1.2-1.6,1.1-3.5,2.2-7.1,3.4-10.6.6-1.6,1.4-3.1,2.1-4.7.2-.4.2-1,.3-1.5.1-.1.2-.2.3-.4,1.3-2.7,2.5-5.5,3.9-8.2-5.9,4.8-12.1,9-19,11.7-.7,1.4-1.3,2.6-2,3.8-.6,0-1.3.1-1.4-.8l1.8-1.9c-.1-.2-.1-.1-.2-.3-1.7.6-3.4,1.3-5.1,1.9-.9.2-1.7.4-2.5.7-3.5.5-6.3,2.4-9.4,3.7-.1,0-.1.3-.2.4-.4.1-.8.2-1.2.4-2.7,1.4-5.4,2.8-8.1,4.1-1.2.6-2.6,1.1-3.8,1.7-1.6.8-3.1,1.8-4.7,2.7-2.3,1.2-4.7,2.4-7.2,3.5-1.1.4-1.9,1.5-3.3,1.2-.4-.7.1-.9.5-1.1,1.7-.9,3.3-1.7,5-2.6,2.6-1.4,5.1-2.8,7.7-4.2,3.5-1.8,6.9-3.6,10.4-5.4,1-.5,2.1-1,3.2-1.4l2.9-1.3c0-.2,0-.2,0-.4h-3.3c-.2-.1-.3-.2-.5-.3-.2-.9.3-1.2.9-1.4,1.2-.4,2.4-.7,3.6-1,7.5-1.6,14.6-4,21.3-7.6.4-.2.7-.3,1.1-.5,0-.1-.1-.2-.1-.4-1.2.3-2.4.6-3.6.9-1.1.2-2.2.3-3.3.5-1.7,0-3.3.1-5,.2-.8,0-1.6.2-2.4.2-.7,0-1.5.4-2.3-.5.8-.3,1.4-.6,2-.8,2.4-.3,4.8-.5,7.2-.8,1.5-.2,2.9-.4,4.4-.7,5.2-.9,9.9-2.7,13.9-6.2,4.9-4.2,9.4-8.8,13-14.1.2-.3.4-.7.4-1.4-.7.4-1.3.8-2,1.2-.3,0-.7,0-1,.2-4.1,1.9-8.2,3.8-12.3,5.6-.5.2-1,.4-1.6-.3.3-.3.6-.8,1-1.1.7-.5,1.4-.9,2.1-1.2,4.3-2.1,8.6-4.1,13-6.1.4-.2.8-.4,1.2-.6,1.6-.8,2.9-1.9,3.6-3.6.5-1.2,1.1-2.3,1.7-3.4.4-.8.8-1.6,1.2-2.5.4-1,.7-1.9,1.1-2.9-.1-.1-.1,0-.2-.2-.2.2-.5.3-.7.5-.3-.6-.5-1.2-.8-1.7,1.7-.5,2.8-1.5,3.3-3.2,1.7-5.9,3-11.9,3.1-18.1,0-.2.1-.3.2-.5,0-.3,0-.5-.1-1.1-.9,1.2-1.8,2-1.9,3.2-.9.8-1.9,1.5-2.6,2.5-2.7,4.2-6.7,7.5-9.8,11.4-.6.8-1.4,1.4-2.1,2.1-.5.4-1,.8-1.8.8.2-.3.2-.5.4-.7,1.6-1.7,3.2-3.3,4.8-5,1.8-2,3.6-4,5.4-6,1.7-1.9,3.3-4,4.9-6,.2-.3.3-.6.5-.9.2-.3.4-.5.6-.8,1.1-1.5,1.7-3.1,1.6-5.1-.4-7-1.7-13.8-4-20.4-.3-1-.7-1.9-1.3-2.8v3.8c-.1.5-.3.9-.4,1.4,0,.7,0,1.4-.1,2.1-.9,4.1-2.7,8-4.6,11.8-.9,1.7-1.7,3.3-2.6,5-.4.7-.5,1.5-1.4,2.1,0-.5-.1-.9,0-1.2.5-1.3.9-2.7,1.5-4,1.1-2.3,2.3-4.5,3.3-6.8.9-2.1,1.8-4.2,2.4-6.4.5-1.8.6-3.8.8-5.7-.2-2.2-.3-4.4-.8-6.6-.3-1.3-1.2-2.6-1.9-3.8-3.3-5.7-7.4-10.8-12.4-15.3-5.2-4.7-11.1-8.5-17.7-11.1-.3-.1-.6-.2-1.1-.1,1.7,2.1,3.5,4.1,5.2,6.2,1,1.2,2.1,2.3,3,3.5,3.6,4.9,7.1,9.7,10.6,14.7,1.4,2,2.6,4.1,3.8,6.2.2.3.2.8.3,1.1-.5,0-.7-.1-.8-.2-1.2-1.7-2.3-3.4-3.5-5.1-2.2-3.1-4.5-6.3-6.8-9.3-2.3-3.1-4.7-6.1-7-9.2-.2-.3-.6-.4-.9-.7-.4-.6-.8-1.2-1.2-1.8-1.4-1.8-2.9-3.6-4.3-5.4-.7-.9-1.6-1.5-2.7-1.7-3.2-.6-6.3-1.3-9.5-2-.7-.1-1.5-.1-1.7-.9-.2-1,.1-1.8.7-2.5.2-.3.9-.3,1.3-.3.5,0,1,.2,1.5.3,2.1.5,4.2.3,6.3,0,2.3.2,4.6-.4,7,0,2.8.4,5.6.2,8.4.5,2.4.2,4.7.7,7.1,1.1.5,0,1.1.3.7,1.3-.9,0-1.9,0-2.8-.1-1.2-.1-2.4-.4-3.6-.5-2.8-.3-5.6-.7-8.4-1-1,0-2.1-.4-3,.3-.2,0-.5-.2-.7-.2-1.1,0-2.3-.2-3.4-.1-.5,0-.5.4,0,.6,6.7,1.8,12.7,4.8,18.3,8.7.8.5,1.6,1.1,2.4,1.7.9.8,3.3,1.1,3.3,1.1,1.9.2,3.8.5,5.7.8,1.2.1,2.4.4,3.7.3,2.4-.1,4.9-.4,7.4-.6.8,0,1.7-.4,2.6.5-.5.3-.8.6-1.2.7-2,.3-4.1.6-6.1.8-2.4.1-4.9-.1-7.3-.2-.9-.1-1.7-.2-2.6-.3-.5-.1-1-.2-1.5-.3q0,.1-.2.3c.1.1.3.3.4.4,2.2,2.3,4.6,4.5,6.6,6.9,1.3,1.6,3.3,2.5,5.3,2.8,0,.9-.5,1.2-.6,1.6Z"/>
      <path class="cls-2" d="M32.6,92.1c-.2,1.2.5,2.2,1.4,3.2.2-.5.5-.8.5-1.1,1.2-4.5,2.9-8.9,5-13.1.1-.2.2-.5.2-.7.3-1.4.5-2.8.8-4.1.4-2.7,1-5.3,1.2-8,.3-3.2,1-6.4,2.3-9.4.7-1.7,1.6-3.3,2.5-4.9.1-.2.5-.3.8-.5q0,1.2-.5,2.2c-2.9,5.4-3.9,11.2-4.3,17.2-.2,1.1-.5,2.3-.7,3.4.1,0,.1,0,.3.1.4-.6.8-1.3,1.2-1.9,4.5-7.1,10.2-13.2,16.8-18.5,1.3-1,2.5-2.1,3-3.7,0,0,.1,0,.1,0,0-.1,0-.2,0-.3,0-.2,0-.4,0-.7.3-.3.8-.7,1-1.1,1.4-4.4,2.7-8.8,4-13.2,0-.2.2-.3.4-.5.8.2.7.6.6,1.1-.2.7-.4,1.4-.6,2.1-.8,2.9-1.3,5.8-2.7,8.6-.3.6-.3,1.3-.4,1.9h0c-.1.1-.3.3-.4.4-.2.6-.4,1.1-.6,1.7,0,.1,0,.2,0,.3.2-.1.4-.3.6-.4,4-2.8,8.4-5.1,12.8-7.1,1.8-.8,2.9-2.3,3.9-4,.4-.2.7-.3,1-.6,1.8-2.1,3.7-4.1,5.5-6.2,2-2.3,3.9-4.5,5.9-6.8,1.5-1.8,3-3.7,4.5-5.5.4-.5.7-.5,1.1,0-.5.8-1,1.6-1.5,2.3-1.1,1.4-2.2,2.8-3.4,4.2-2.6,3-5.2,6-7.8,9-.8,1-1.6,1.9-2.4,2.8l-2.8,2.5c.1.2,0,.1.2.3.6-.1,1.2-.3,1.8-.4,4.1-1.2,8.2-2.3,12.4-3.5.4-.1.8-.2,1.2-.2,1.3-.1,2.3-.6,3.2-1.5,1-1,2.2-1.8,3.3-2.7.4-.3.6-.6,1-.9l1,1.4c-1.1.8-2.2,1.6-3.3,2.4v.3c1.8-.1,3.2,0,3.2,2.1-1.6.9-3.4.9-5.3,1.2.4.2.6.4.9.5.4.2.7.5,1,.6,1.7.3,3.1,1.1,4.4,2,1.7,1.2,3.5,2.3,5.1,3.5,2.2,1.6,4.5,3.3,7.1,4.3,1.3.5,2.6.8,3.8,1.3.5.2,1.2.3,1.1,1.1-.7.5-1.4.2-2,0-4.1-1.1-7.7-3.2-11-5.7-3.6-2.6-7.2-5.1-11.5-6.3-.6-.1-1.1-.3-1.7-.4-.6,0-1.3-.1-1.8,0-3.2.9-6.4,1.7-9.6,2.6-1.5.5-2.9,1.1-4.4,1.6-2.4,1.2-4.9,1.9-7.3,3.6,1.7.8,3.2,1,4.6,0,0,.9,0,1.7-.1,2.5-2.1,0-4.2,0-6-1.5,0,0-.2,0-.3-.1-7.5,3.8-17.7,12-21.5,17.5,1.9-.9,3.7-1.2,5.2-2.3,1-.3,2-.6,3-1,2.7-.9,5.4-1.9,8.2-2.7,2.6-.8,5.2-1.3,7.8-2,.5-.1,1-.1,1.2.4.2.6-.4.8-.8.9-1.1.2-2.2.4-3.3.8-2.9.9-5.7,1.7-8.5,2.7-3,1-5.9,2.1-8.9,3.1-1.7.6-3.4,1.2-5.1,1.9-.5.2-.9.7-1.2,1.2-4.7,6-8.3,12.6-10.7,19.8-.6,1.9-1.1,3.8-1.7,5.7-.1.4-.1.9-.2,1.7,1.5-1.6,2.8-3,4-4.3.4-.2.7-.4,1-.6,1.8-1.5,3.5-3,5.4-4.4,2.8-2.1,5.8-4.1,8.7-6.1.5-.4,1-.9,1.8-.2-.3.3-.6.7-.9.9-2.3,1.6-4.7,3.2-7,4.9-2.3,1.7-4.6,3.4-6.8,5.1-.7.5-1.1,1.3-1.6,1.9-.3.2-.7.3-.9.5-.7.7-1.4,1.5-2.2,2.2-1.9,1.8-2.6,4-2.6,6.5,0,3.7-.2,7.3-.2,11,0,.1,0,.2,0,.3,0,.2.1.3.1.5,0,.5,0,1,.1,1.5l1.1,6.9c.2,0,.2,0,.4,0,.7-2.3,1.5-4.6,2.2-6.9.3-.4.7-.8.9-1.2.6-1.1,1.1-2.3,1.8-3.3,2.8-3.9,5.6-7.7,8.5-11.6.1-.1.4-.2.6-.3.4,1,.1,1.6-.4,2.3-1.5,1.7-3,3.5-4.3,5.3-1,1.5-2,2.9-3,4.4-1.5,2.1-2.8,4.2-3.5,6.7-.8,2.1-1.6,4.1-2.3,6.3-.2.5,0,1.2,0,1.8,1.6,6,4.1,11.6,7.5,16.8.5.8,1,1.5,1.6,2.4.1-.4.2-.6.3-.8,0-.1,0-.2-.1-.3,0-1.1-.2-2.8-.2-3.9.2-1.4.4-2.8.6-4.2.5-3,1-6,1.5-9.1.1-.8.4-1.6.6-2.4,1,.1.9.7.8,1.2-.2,2.4-.4,4.9-.9,7.2-.7,3.3-1.4,6.6-1.3,9.9.1,3,.9,5.7,3,7.9.6.6,1,1.3,1.6,1.8.4.4,1,.7,1.5,1-.6,0,0,0,0,0,0,.2.3.4.4.3,1,1.8,2.6,3.2,4.2,4.4.3.2.5.5.8.9.8.7,1.6,1.4,2.6,2.2,0-.7-.1-1.1-.1-1.6,1-.1.6-.1,1.6-.2.3,1.1.5,2.3.9,3.5,8.7,6.3,16.5,9.7,23.4,11.9-.6-1.1-1.1-1.9-1.9-2.6-1-1.7-2-3.5-3.1-5.2-2.6-3.9-5.2-7.8-7.8-11.8-.4-.5-.7-1.1-1.2-1.7,1.4-.2,1.8.7,2.3,1.3,1.8,2.6,3.6,5.2,5.3,7.8,2.4,3.8,4.8,7.6,7.2,11.3.7,1.2,1.8,1.8,3.2,2.1,3.7.8,7.4,1.9,11.1,2.6,2.5.5,5.1.5,7.7.8,1.5.1,3,.2,4.6.4,1,.1,1.1.3.9,1.4-1.9,0-3.8,0-5.8,0-.7,0-1.5,0-2.3-.1-.8,0-1.6-.1-2.4-.2-2.5-.3-5-.6-7.6-1-1.6,1.7-3.8,2.4-6.2,2.7-.6,0-1.3,0-1.9,0-3.6.2-7.2-.3-10.7-1-4.4-1-8.7-2.1-13-3.1-1.3-.3-2.6-.9-3.8-1.3-.6-.2-1-.5-.6-1.2.9-.4,1.5.3,2.3.5,3.9,1,7.8,1.9,11.8,2.8,2.9.6,5.7,1.1,8.6,1.6,1.5.2,3,.3,4.5.4,2.3.3,4.4-.6,6.6-1.6-.4-.1-.7-.3-1.1-.4-5.7-1.4-11.4-3.2-16.6-5.8-4-2-7.8-4.2-11.7-6.3-.8-.4-1.6-.8-2.4-1.2-2.3-1-4.7-1.9-7-2.9-.5-.2-1-.3-1.5-.5-1.3-.7-2.7-1.4-4-2.1-3.5-1.6-7.2-3.2-10.7-4.9-2.9-1.3-5.8-2.7-8.7-4.1-.4-.2-.7-.6-1.2-1,.9-.4,1.4,0,1.9.2,2.1,1,4.3,2,6.4,2.9,4,1.7,8,3.5,11.9,5.2,1.6.7,3.2,1.5,4.7,2.3,1.9,1.2,4,2.2,6.3,3.1-2.5-2.2-4.8-4.1-7-6.1-3.5-3.1-6.4-6.7-9.1-10.5-.5-.7-1.2-1.3-2-1.7-.8-.4-1.5-1-2.3-1.4-.6-.3-1.4-.6-2.1-.9-.3-.4-.6-1-1-1.4-.6-.7-1.3-1.3-2-1.9-2.4-2.6-4.7-5.2-7.1-7.8-1.1-1.2-2.1-2.3-3.2-3.5-.9-1-1.7-2.1-2.5-3.1-.3-.4-.5-.8.4-1.3.2.2.3.6.5.9,3,3.3,6,6.5,9,9.8,1.5,1.6,2.8,3.2,4.3,4.8.7.8,1.6,1.3,2.4,1.9.9.8,1.8,1.5,2.8,2.3.1-.1.1,0,.2-.2-.9-1.6-1.8-3.2-2.7-4.9-1.1-2.1-2.2-4.2-3.1-6.4-.9-2.3-1.7-4.6-2.4-6.9-.5-1.8-.7-3.7-1.1-5.5-.4-2.3-1.5-4.3-2.6-6.3,0-.1-.2-.1-.3-.2-.2-.6-.3-1.2-.6-1.7-1.6-2.7-3.1-5.4-4.7-8-2.3-3.7-4.6-7.2-6.9-10.9-.1-.2,0-.6,0-.9.1,0,.3,0,.5-.1,1.1,1.6,2.2,3.2,3.2,4.8,1.3,2.1,2.7,4.2,3.9,6.4,1.4,2.6,3.6,4.8,4.5,7.7,0,.2.4.2.5.4.7.9.9,2,1.6,3.4v-10.2c0-.1.1-.3.2-.4.3-2.8.6-5.6,1-8.4.1-.9,0-1.4-.7-2.1-.8-.8-1.8-2.6-2.4-3.6.4-.6,1.3-.4,2.2-.8Z"/>
      <path class="cls-3" d="M109.7,184.2c1.9,0,3.8,0,5.8,0,.7.1,1.5.2,2.2.3.7,0,1.4,0,2.1,0,.5,0,.9.4,1.3.6-1.1.5-2.1.9-3.2,1.4-3.5,1.8-7,3.6-10.4,5.4-2.6,1.4-5.1,2.8-7.7,4.2-1.7.9-3.3,1.7-5,2.6-.4.2-.9.4-.5,1.1,1.3.2,2.2-.8,3.3-1.2,2.4-1.1,4.8-2.3,7.2-3.5,1.6-.8,3.1-1.8,4.7-2.7,1.2-.6,2.6-1.1,3.8-1.7,2.7-1.3,5.4-2.7,8.1-4.1.4-.2.8-.3,1.2-.4.3,1.5-.2,2.8-1.2,4-.2.3-.4.6-.6,1-.6,1.3-1.3,2.5-2.6,3.4-.4.2-.7.6-1,.9-2.6,3.3-6.2,4.8-10,6.1-5.4,1.9-11.1,2.6-16.8,2.8-1.3,0-2.6.3-3.9.4-.4,0-1.2,0-1.2-.1-.1-.4-.1-1,.1-1.4.7-1.1,1.6-2.2,2.4-3.2,3.7-4.4,8-8.2,13.2-11,3.5-1.9,7.3-3.2,11.2-4,.3,0,.6-.2,1.3-.5-1.6-.1-2.7-.3-3.7-.4Z"/>
      <path class="cls-3" d="M147.3,55.3c.3.2.7.4.9.7,2.4,3,4.7,6.1,7,9.2,2.3,3.1,4.6,6.2,6.8,9.3,1.2,1.7,2.3,3.4,3.5,5.1.1.2.4.2.8.2,0-.4,0-.8-.3-1.1-1.2-2.1-2.4-4.2-3.8-6.2-3.5-4.9-7-9.8-10.6-14.7-.9-1.2-2-2.4-3-3.5,1.1-.2,2.2,0,3.3.5,3.2,1.5,5.7,3.7,8,6.1,3.7,3.8,6.4,8.3,7.8,13.3,1.2,4.1,2,8.3,2.9,12.5,0,.3,0,.8-.1,1.3-.6-.2-1.1-.4-1.6-.6-5.1-2.9-9.6-6.4-12.9-11.2-3.1-4.5-5.8-9.2-8-14.1-.8-1.8-1-3.7-1.5-5.6-.1-.5-.2-1.1.6-1.2Z"/>
      <path class="cls-3" d="M84.5,40.6c.8-1,1.6-1.9,2.4-2.8,2.6-3,5.2-6,7.8-9,1.2-1.4,2.3-2.8,3.4-4.2.6-.7,1-1.5,1.5-2.3-.3-.5-.7-.5-1.1,0-1.5,1.8-3,3.7-4.5,5.5-1.9,2.3-3.9,4.5-5.9,6.8-1.8,2.1-3.6,4.2-5.5,6.2-.2.3-.7.4-1,.6.4-2.7.8-5.4,1.3-8.1.7-3.6,3.1-6.1,6.1-8.1,2-1.3,4.1-2.5,6.2-3.7,3.9-2.2,8-4.1,12.4-5.3.6-.2,1.2-.5,1.8,0,.8.6.8,1.5.1,2.6-.5.8-1,1.5-1.5,2.3-.9,1.5-1.7,3-2.7,4.4-1.7,2.3-3.5,4.6-5.8,6.4-1.7,1.3-3.6,2.5-5.4,3.8-.2.2-.5.4-.7.5-1.1.7-2.1,1.4-3.2,2-1.6.9-3.2,1.6-4.8,2.4-.2,0-.7,0-1,0Z"/>
      <path class="cls-3" d="M39.3,120.7c.7-2.4,2-4.5,3.4-6.5,1-1.4,2-2.9,3-4.3,1.3-2,2.9-3.8,4.4-5.6.5-.7.8-1.3.4-2.3-.3.1-.5.2-.6.3-2.8,3.8-5.7,7.7-8.5,11.6-.7,1-1.2,2.2-1.8,3.3-.2.4-.6.8-.9,1.2-.7-1.5-.5-3-.2-4.5.9-5,3.3-9.3,6.4-13.4,2.6-3.3,5.9-5.9,9.2-8.5,1-.8,1.9-1.5,2.9-2.2.4-.3.7-.4,1.3-.8.1.5.3.9.2,1.2-.6,4-.9,8.1-1.8,12-1.3,5.5-4.6,10-9,13.7-.4.3-.9.5-1.3.8-1.8,1.2-3.7,2.4-5.5,3.6-.5.3-.9.7-1.6.4Z"/>
      <path class="cls-3" d="M188.6,115.7c.2.8.5,1.5.7,2.3.8,3.1,1.5,6.2,2.4,9.2,1.1,4,2.4,8,3.6,11.9.1.4.5.7.8,1.1.8-.8.6-1.4.4-2.1-1.4-4.9-2.7-9.9-4.1-14.8-.9-2.9-1.8-5.9-2.7-8.8-.1-.4-.1-.8-.1-1.2,1.3,0,2.4.6,3.3,1.4,1.6,1.4,3.2,2.9,4.3,4.7,1.7,2.9,2.7,6.1,3.2,9.4.7,4.4.4,8.7,0,13.1-.2,2.2-.4,4.3-.6,6.4,0,.5,0,1.2-.7,1.2-.4,0-1.1-.2-1.3-.5-1.5-1.7-3-3.4-4.3-5.2-3.2-4.2-4.4-9.1-4.7-14.1-.2-3.4-.2-6.8-.3-10.3,0-1,0-2,0-3,0-.3.2-.6.4-.8Z"/>
      <path class="cls-3" d="M30.8,114.3c-.2-.1-.5-.2-.5-.4-.9-2.9-3.1-5-4.5-7.7-1.1-2.2-2.6-4.3-3.9-6.4-1-1.6-2.1-3.2-3.2-4.8-.1,0-.3,0-.5.1,0,.3-.2.7,0,.9,2.3,3.7,4.6,7.2,6.9,10.9,1.6,2.6,3.2,5.3,4.7,8,.3.5.4,1.2.6,1.7,0,0-.1,0-.2,0-5.6-2.4-10.4-5.3-12.8-11.3-2.2-5.8-3.8-11.7-3.8-17.9,0-1,0-1.9.9-2.6,9.5,5.2,16.6,16.1,16.1,29.4Z"/>
      <path class="cls-3" d="M87.9,177c-2.4-3.8-4.8-7.6-7.2-11.3-1.7-2.6-3.5-5.3-5.3-7.8-.5-.6-.9-1.5-2.3-1.3.5.7.8,1.2,1.2,1.7,2.6,3.9,5.2,7.8,7.8,11.8,1.1,1.7,2.1,3.4,3.1,5.2-.5,0-1,.2-1.4.1-2.8-.4-5.5-1.2-7.4-3.5-1.1-1.3-2.5-2.5-3.5-3.9-2.1-2.9-3.2-6.2-4.1-9.6-.6-2.3-1.1-4.6-1.7-7-.1-.4,0-.9-.1-1.6.7.2,1.3.4,1.7.6,2.8,1.5,5.7,3.1,8.5,4.7,5.6,3.3,9.3,8.1,10.9,14.1.6,2.1.2,4.5.2,6.8,0,.3-.3.6-.5.9Z"/>
      <path class="cls-3" d="M54.9,164c-1.6-.8-3.1-1.6-4.7-2.3-4-1.8-8-3.5-11.9-5.2-2.2-1-4.3-2-6.4-2.9-.5-.2-1-.7-1.9-.2.5.4.7.8,1.2,1,2.9,1.4,5.8,2.8,8.7,4.1,3.5,1.6,7.2,3.2,10.7,4.9,1.4.6,2.7,1.4,4,2.1-1,.1-2.1.3-3.1.2-2.8-.3-5.5-.6-8.2-1.1-4.5-.8-8.5-2.7-12-5.5-2.8-2.2-5.4-4.8-8.1-7.1-1-.9-2.1-1.7-3-2.6-.6-.5-.6-.6-.5-1.8,1,0,2-.1,2.9,0,3.1.4,6.2.8,9.2,1.5,6,1.4,11.4,3.9,16.1,7.9,2.2,1.9,4.4,3.8,6.6,5.6.4.4,1.1.7.4,1.4Z"/>
      <path class="cls-3" d="M185,84.1c.4.2.8.4,1.2.7,3.9,3.5,7.2,7.3,10,11.7,1.2,1.9,2.4,3.9,3.7,5.8.2.4.6.7,1,1.1.1,0,.2-.1.4-.2,0-.4,0-.9-.1-1.2-.6-1.3-1.2-2.8-2-4-2.6-3.7-5.3-7.2-8-10.8-.9-1.1-2.1-2-3.1-3.1-.4-.4-.6-.9-.9-1.4,3.2.7,6.1,2.2,8.6,4.1,2.8,2.1,5.2,4.6,7.1,7.6,2.5,3.7,3.9,7.8,4.9,12,.2.7.4,1.4.5,2.2,0,.3,0,.8-.1.9-.2.1-.7,0-1,0-3.3-1.7-6.7-3.4-10-5.2-1.5-.9-2.9-1.9-4.2-3.1-4-3.5-6.1-8-7.2-13.1-.2-1.3-1-2.5-.6-4Z"/>
      <path class="cls-5" d="M32.6,92.1c-6.4,6.1-12.3-4.4-12.1-10.3.2-3.1-1.3-7.5,1.9-9.1,4.5-2.3,8.4,2.8,11.4,5.8,4.1,4,3,10.1-1.2,13.6ZM21.2,76c0,4.5,2.3,4.4,2.2-.1,0-.5-.5-1-1-1h0c-.6,0-1.1.5-1.1,1.1Z"/>
      <path class="cls-3" d="M97.5,42.3c.6.1,1.1.2,1.7.4,4.4,1.2,8,3.7,11.5,6.3,3.4,2.4,6.9,4.6,11,5.7.7.2,1.3.5,2,0,0-.8-.6-.9-1.1-1.1-1.3-.4-2.6-.8-3.8-1.3-2.7-1-4.9-2.6-7.1-4.3-1.7-1.2-3.4-2.4-5.1-3.5-1.3-.9-2.8-1.7-4.4-2-.4,0-.7-.4-1-.6.9-.1,1.7-.3,2.6-.4,1.5,0,3,0,4.4.6,1.9.8,4,1.2,6,2,3.4,1.5,6.4,3.6,8.9,6.4,1.9,2.2,3.9,4.3,5.8,6.5.4.4.6,1,.9,1.5-1,.7-2.1.4-3,.4-.9,0-1.8-.2-2.6-.2-6.7.2-12.3-2.4-17.5-6.3-2.9-2.2-5-5.1-7.4-7.8-.4-.5-.9-.9-1.3-1.4-.2-.3-.2-.7-.4-1Z"/>
      <path class="cls-3" d="M55,68.4c3-1.1,5.9-2.2,8.9-3.1,2.8-1,5.7-1.8,8.5-2.7,1.1-.3,2.2-.5,3.3-.8.5-.1,1-.2.8-.9-.2-.5-.7-.5-1.2-.4-2.6.6-5.2,1.2-7.8,2-2.8.8-5.5,1.8-8.2,2.7-1,.3-2,.6-3,1,.4-.4.6-1,1.1-1.3,1.9-1.4,3.7-3,5.7-4.2,4.3-2.6,9-3.9,14.1-4,2.3,0,4.7.4,7,.6,1.2.3,2.3.7,3.5,1-.4,1.5-1.6,2.4-2.8,3.2-5,3.7-10.6,6.4-16.6,8.2-2.7.8-5.3.7-8,.1-1.2-.2-2.4-.4-3.6-.8-.6-.1-1.4,0-1.6-.8Z"/>
      <path class="cls-3" d="M177.5,85.1c-.3,1.9-.4,3.9-.8,5.7-.6,2.2-1.5,4.3-2.4,6.4-1,2.3-2.2,4.5-3.3,6.8-.6,1.3-1,2.7-1.5,4-.1.3,0,.6,0,1.2.9-.6,1.1-1.4,1.4-2.1.9-1.7,1.8-3.3,2.6-5,1.9-3.8,3.7-7.6,4.6-11.8.1-.6,0-1.4.1-2.1,0-.5.2-.9.4-1.4.2.9.6,1.7.7,2.6.4,3.1-.4,6-1.5,8.9-2.4,5.9-5.3,11.6-9.3,16.6-1,1.2-2.2,2.3-2.7,3.8,0,.2-.3.3-.7.6-.2-.5-.6-.9-.6-1.2-.2-4.2-.6-8.4.1-12.6,1.1-5.9,3.8-11.2,7.9-15.8,1.3-1.4,2.7-2.7,4.1-4,.2-.2.6-.3,1-.4Z"/>
      <path class="cls-3" d="M39.6,144.8c-.8-.6-1.7-1.2-2.4-1.9-1.5-1.5-2.8-3.2-4.3-4.8-3-3.3-6-6.5-9-9.8-.2-.2-.3-.6-.5-.9-.9.5-.7.9-.4,1.3.8,1,1.6,2.1,2.5,3.1,1,1.2,2.1,2.3,3.2,3.5,2.4,2.6,4.7,5.2,7.1,7.8.6.7,1.3,1.3,2,1.9.4.4.6.9,1,1.4-3.3-.8-6.3-2.2-9.1-4.1-6-4.2-9.9-9.9-12.5-16.4-.4-1-.8-2.1-1.1-3.1-.1-.4-.2-1.3,0-1.4.4-.2,1.1-.2,1.6,0,4.9,1.8,9.1,4.4,12.8,8.1,4.3,4.3,6.9,9.4,9.1,14.9,0,.2,0,.3,0,.5Z"/>
      <path class="cls-3" d="M42.5,72.8c.4-6,1.5-11.8,4.3-17.2.6-1.1.5-1.1.5-2.2-.3.2-.7.3-.8.5-.8,1.6-1.8,3.2-2.5,4.9-1.2,3-1.9,6.2-2.3,9.4-.2,2.7-.8,5.3-1.2,8-.2-.2-.6-.3-.7-.5-1-2-1.9-4-2-6.3-.1-8.4,3.1-15.6,8.6-21.8.7-.8,1.5-1.6,2.2-2.5.4-.4.9-.8,1.5-1.3.3.4.6.6.7.9,1.2,3.4,1.2,7,.7,10.5-.5,4.4-2.5,8.3-5,11.9-1.2,1.7-2.3,3.5-3.4,5.2-.1.2-.5.3-.7.5Z"/>
      <path class="cls-3" d="M181.8,112c-.1.3-.3.6-.5.9-1.6,2-3.3,4-4.9,6-1.8,2.1-3.6,4.1-5.4,6-1.6,1.7-3.2,3.3-4.8,5-.1.1-.2.4-.4.7.8,0,1.3-.3,1.8-.8.7-.7,1.5-1.3,2.1-2.1,3.2-3.9,7.1-7.1,9.8-11.4.6-1,1.7-1.7,2.6-2.5.4,1.7,0,3.3-.7,4.9-2.1,5.3-5.9,9.3-10.6,12.5-2.8,1.9-5.9,3.5-8.9,5.2-.3.2-.7.2-1.3.3,0-.5,0-.9.1-1.3,1.3-7.1,5.1-13.1,9.9-18.4,1.8-2.1,4.3-3.4,6.9-4.3.8-.3,1.5-.6,2.3-.9.6-.2,1.3-.6,2-.1Z"/>
      <path class="cls-5" d="M106,35.9c-10.6-12.2,22.7-17.1,18.8-8.9-4.1,5.1-11.7,14.3-18.8,8.9ZM121.2,26c-.4-2.5-3.9-2.3-3.3.3,1.1-.1,2.3.4,3.3-.3Z"/>
      <path class="cls-3" d="M88.5,184.2c-1.5-.1-3-.2-4.5-.4-2.9-.4-5.8-1-8.6-1.6-3.9-.9-7.9-1.8-11.8-2.8-.7-.2-1.4-.9-2.3-.5-.3.7,0,1,.6,1.2,1.3.4,2.5,1,3.8,1.3,4.3,1.1,8.6,2.2,13,3.1,3.5.8,7,1.2,10.7,1,.6,0,1.3,0,1.9,0,0,0-.1.1-.1.1-2.2,0-4.1,1.1-6.2,1.5-6.3,1.5-12.5.8-18.3-2-3.1-1.5-6.1-3.3-9.1-4.9-1.1-.6-2.3-1.2-3.4-1.8-.4-.2-.8-.4-1.3-.8.3-.3.5-.7.8-.8,3-.7,6-1.3,9.1-.9,2.3.3,4.7.3,7,.8,5.5,1.2,11,2.7,16,5.2,1,.5,1.9,1.3,2.8,1.9Z"/>
      <path class="cls-5" d="M131.7,182.2c29-8.3-6.4,27.3-9,14.3-1.1-5.6,1.3-12.1,9-14.3ZM132.5,193.3c-1.9-.4-5.6,1.9-5.1,3.7,1.8,0,4.3-2,5.1-3.7Z"/>
      <path class="cls-5" d="M87,57.9c-20.4-2.1-1.6-19.9,13.3-7,3.7,3-4.5,7.1-7.3,7.2-1.8.2-4.2,0-6.1-.1ZM90.2,49.1c0,.2,0,.5,0,.7,1.5.8,2.8,1.8,4.7,1.3.2-1.9.1-2.2-2.8-3-.8-.2-1.7.2-2,1Z"/>
      <path class="cls-3" d="M176.4,153c-.2,2.5-.5,5-.6,7.4,0,2.2.1,4.4.2,6.6,0,1.5,0,3.1,0,4.6,0,.7-.2,1.6.8,1.8.7.1,1-.4,1-1.8,0-3.2,0-6.5,0-9.7.1-3.2.5-6.3.6-9.5,0-1,0-1.9-.2-2.9,0-.5.2-.6.6-.6.6.9,1.3,1.7,1.7,2.7,2.3,5.7,2.3,11.4.6,17.3-1.3,4.4-2.1,8.9-3.1,13.3-.2.8,0,1.8-1,2-1.1.2-1.3-.9-1.6-1.5-.7-1.1-1.1-2.3-1.7-3.4-.2-.3-.6-.6-.9-.9,0-.6.1-1.2,0-1.8-.2-2.5-.7-5-.7-7.6,0-2.3.2-4.5.2-6.8.1-.4.2-.8.4-1.1.7-2.4,1.4-4.8,2.1-7.1.2-.8.6-1.2,1.5-1.1Z"/>
      <path class="cls-5" d="M59,162.1c-1.9-1.8-4-3.2-4.8-5.7-.5-1.7-.7-3.8-.6-5.7,0-4.5,4.7-12.3,9.5-6.8,3.4,3.8,5.1,22.2-4.1,18.2ZM57.1,151.7c.8-1.6,1.6-3.2,1.3-5.2-1.9,0-2.1.2-2.4,1.7,0,1.6-1.2,2.7,1.1,3.5Z"/>
      <path class="cls-3" d="M47.5,145.8c-.1-3.4.6-6.6,1.3-9.9.5-2.4.6-4.8.9-7.2,0-.4.2-1.1-.8-1.2-.2.8-.4,1.6-.6,2.4-.5,3-1.1,6-1.5,9.1-.2,1.6-.5,3.1-.7,4.7-1.1-.2-1.2-1.1-1.5-1.9-.9-3.3-1-6.8-.1-10.1.8-3,1.8-6,2.8-9,.8-2.3,2.3-4.1,4.5-5.3.2.2.4.3.4.4,1.4,4.9,2.9,9.7,2.6,14.9-.4,5.1-2.5,9.3-6.1,13-.2.2-.7.2-1.1.3Z"/>
      <path class="cls-5" d="M172.5,162.3c4.3,2.5,4.1,24-6.9,19.9-7.9-2.9-2.9-25.6,6.9-19.9ZM171.4,175.1c-1.7-.5-3.9,3.9-1.7,3.5,1.9-.3,2.5-2.4,1.7-3.5Z"/>
      <path class="cls-5" d="M175,67.7c2.9-8.6,20.8-3.1,21.7,3.3,1.2,7.9-20.4,4.8-21.7-3.3ZM187.5,67.5c0,1.9,7.7,2.7,5,.5-1.7-1.3-5-2.7-5-.5Z"/>
      <path class="cls-3" d="M143,42.4c.9-.8,2.1-.4,3-.3,2.8.2,5.6.6,8.4,1,1.2.1,2.4.4,3.6.5,1,.1,1.9.1,2.8.1.4-1-.2-1.2-.7-1.3-2.4-.4-4.7-.9-7.1-1.1-2.8-.3-5.7,0-8.4-.5-2.4-.4-4.7.3-7,0,3.4-2.5,7.5-3.2,11.7-3.4,6.1-.2,11.7,1.4,17.1,3.6,1.5.6,3.1,1.2,4.6,1.8.3.1.6.3,1,.6-.5.3-.7.6-1.1.8-3.3,1.5-6.7,2.6-10.4,2.5-2.4,0-4.9-.6-7.3-1-3.4-.5-6.6-1.7-9.7-3-.2,0-.4-.2-.6-.4Z"/>
      <path class="cls-3" d="M40.8,96.1c.5-.6,1-1.4,1.6-1.9,2.2-1.8,4.5-3.5,6.8-5.1s4.7-3.3,7-4.9c.4-.2.6-.6.9-.9-.8-.6-1.3-.2-1.8.2-2.9,2-5.8,4-8.7,6.1-1.9,1.4-3.6,2.9-5.4,4.4-.3.2-.7.4-1,.6-.3-1.5.6-2.5,1.3-3.6,2.2-3.4,5.3-5.9,8.9-7.9,2.2-1.2,4.3-2.5,6.5-3.5,1.8-.8,3.7-1.4,5.6-2,1.3-.4,2.7-.4,4,.3-.2,1-.9,1.6-1.5,2.3-2.8,3-6,5.5-9.3,7.9-1.2.8-2.4,1.7-3.5,2.6-2.6,2.1-5.6,3.4-8.7,4.6-.9.3-1.8.6-2.7,1Z"/>
      <path class="cls-5" d="M177.5,133.9c7.1,6.2-11.3,14.7-17.1,10.3-7.2-5.4,13.2-13.7,17.1-10.3ZM165.1,141.9c-.4,1.2,1.1,1.4,3.2,1.1,3.6-1.4-2.6-3-3.2-1.1Z"/>
      <path class="cls-3" d="M143.8,171.5c-1.5.2-2.9.5-4.4.7-2.4.3-4.8.4-7.2.8-.6,0-1.2.4-2,.8.8.9,1.6.5,2.3.5.8,0,1.6-.2,2.4-.2,2.1-.1,4.1-.2,6.1-.3-.1.9-.9,1.2-1.6,1.5-3.9,1.6-7.8,2.7-12,1.9-3.4-.6-6.7-1.1-10.3-1.7.3-.4.3-.7.5-.8,3-1.7,5.9-3.5,9-5.1,3.8-1.9,7.9-1.9,11.9-1,1.3.3,2.6.9,3.9,1.2,1,.2,1.4.7,1.3,1.7Z"/>
      <path class="cls-3" d="M156.2,175.7c-.1.5-.1,1-.3,1.5-.7,1.6-1.5,3.1-2.1,4.7-1.2,3.5-2.3,7-3.4,10.6-.1.5-.1,1-.2,1.6.1,0,.2.1.3.1.2-.2.6-.3.7-.6.3-.6.6-1.2.8-1.9,1.6-4.3,3-8.7,4.6-13.1.6-1.6,1.4-3.1,2.1-4.7,0-.1.4-.2.6-.3,1.2,1.6.9,3.4.6,5.1-.9,6-3.1,11.6-6.3,16.7-1,1.7-1.9,3.4-2.9,5.1-.1.2-.2.4-.3.6-.2.2-.5.4-.7.4-.3-.1-.6-.4-.7-.6-.1-.9-.1-1.7-.2-2.6-.2-2.7-.5-5.3-.6-8,0-2,.6-3.9,1.5-5.6,1.4-2.7,2.9-5.3,4.5-8,.4-.6.9-1.4,1.9-1.1Z"/>
      <path class="cls-3" d="M170.4,148.2c-4.3,2-8.7,4-13,6.1-.7.3-1.5.8-2.1,1.2-.4.3-.6.7-1,1.1.6.7,1.1.5,1.6.3,4.1-1.9,8.2-3.8,12.3-5.6.3-.1.6-.1,1-.2-.6,2-2.2,3.2-3.8,4.4-2.3,1.8-5.1,2.8-7.9,3.6-3.3.9-6.6,1.6-9.9,2.4-.4,0-.8-.1-1.1-.1,0-.4,0-.9.2-1.3,3.2-4.8,7.2-8.8,12.9-11.1,3.2-1.2,6.3-1.6,9.7-1.5.6,0,1,.3,1.3.7Z"/>
      <path class="cls-3" d="M65.4,50.3c.1-.6.1-1.4.4-1.9,1.4-2.7,1.9-5.7,2.7-8.6.2-.7.4-1.4.6-2.1.1-.4.2-.9-.6-1.1-.1.1-.3.3-.4.5-1.3,4.4-2.7,8.8-4,13.2-.1.4-.6.7-1,1.1-.2-.8-.5-1.6-.6-2.4-.5-3.2-1.1-6.4.5-9.5.5-1,.9-2,1.5-2.9,1.7-2.8,3.5-5.6,5.2-8.3.2-.3.6-.8.8-.7.4.1.9.5.9.8.3,1.4.7,2.9.7,4.3,0,5.1-1.6,9.7-4.1,14.1-.5.9-1,1.8-1.6,2.6-.3.4-.8.6-1.3,1Z"/>
      <path class="cls-3" d="M167.7,56.5c2.4,0,4.8.2,7.2.2,2.1,0,4.1-.4,6.1-.8.4,0,.7-.4,1.2-.7-.9-1-1.8-.6-2.6-.5-2.4.2-4.9.5-7.4.6-1.2,0-2.4-.2-3.7-.3-1.9-.2-3.8-.5-5.7-.8.5-.3.9-.8,1.3-.9,2.8-1,5.7-1.4,8.7-1.5,5.2-.2,10.3.6,15.4,1.7,1.1.2,2.2.4,3.3.7.4.6,0,.9-.4,1.2-1.3.6-2.6,1.4-4,1.9-3,1.1-6,2.2-9.2,2.3-3.3,0-6.3-.7-9.2-2-.4-.2-.6-.6-1-1Z"/>
      <path class="cls-2" d="M138.9,42.6c-.5-.2-.4-.6,0-.6,1.1,0,2.3,0,3.4.1-.8,0-1.6,0-2.4.1-.4,0-.7.2-1,.3Z"/>
      <path class="cls-3" d="M105,183.9c.6,0,1.2.1,1.8.2-.6,0-1.2-.1-1.8-.2Z"/>
      <path class="cls-3" d="M168.3,158.5c.2-.1.4-.3.6-.4,0,.2,0,.4,0,.6-.2,0-.4-.1-.6-.1Z"/>
      <path class="cls-3" d="M120.1,183.1c.2.1.4.2.6.3-.2-.1-.4-.2-.6-.3Z"/>
      <path class="cls-3" d="M168.9,159.1c0,.2-.1.3-.2.5,0-.2.1-.3.2-.5Z"/>
      <path class="cls-3" d="M46.4,146.9c0,.1,0,.2.1.3,0,0-.1-.1-.1-.2,0,0,0-.1,0-.1Z"/>
      <path class="cls-3" d="M184.1,112.1c0,.2-.1.3-.2.5.1-.2.2-.3.2-.5Z"/>
      <path class="cls-3" d="M65,50.6c.1-.1.2-.2.4-.3-.1.1-.2.2-.4.3Z"/>
      <path class="cls-3" d="M187.1,82.8h-.4c.1,0,.3,0,.4,0Z"/>
      <path class="cls-3" d="M63.2,51.9c0,.1,0,.2,0,.3s-.1,0-.1,0c0-.1,0-.2.1-.3Z"/>
      <path class="cls-4" d="M153.8,100.9h-27.9v-26.2c0-.8-.7-1.5-1.5-1.5h-28.7c-.9,0-1.5.6-1.5,1.5v26.2h-26.8c-.8,0-1.5.6-1.5,1.5v27.6c0,.8.7,1.5,1.5,1.5h26.8v26.2c0,.8.7,1.5,1.5,1.5h28.7c.9,0,1.5-.6,1.5-1.5v-26.2h27.9c.8,0,1.5-.6,1.5-1.5v-27.6c0-.8-.7-1.5-1.5-1.5Z"/>
      <path class="cls-1" d="M132.7,106.3c-.7-1.9-4.1-2.9-6.1-.9-.5.5-.9,1-1.4,1.5-.5-.5-.9-1-1.4-1.5-1.9-2.1-5.3-1.2-6.1.7-.6,1.3-.4,2.6.4,3.5,2.2,2.5,4.6,4.9,6.9,7.3,2.4-2.3,5-4.6,7.2-7,.8-.8,1-2.1.5-3.5Z"/>
    </g>
  </g>
</svg>